<?xml version="1.0" standalone="no"?><!DOCTYPE svg PUBLIC "-//W3C//DTD SVG 1.1//EN" "http://www.w3.org/Graphics/SVG/1.1/DTD/svg11.dtd"><svg t="1726903617594" class="icon" viewBox="0 0 1024 1024" version="1.1" xmlns="http://www.w3.org/2000/svg" p-id="36973" xmlns:xlink="http://www.w3.org/1999/xlink" width="200" height="200"><path d="M853.333333 42.666667H170.666667a128 128 0 0 0-128 128v682.666666a128 128 0 0 0 128 128h682.666666a128 128 0 0 0 128-128V170.666667a128 128 0 0 0-128-128zM170.666667 128h682.666666a42.666667 42.666667 0 0 1 42.666667 42.666667v256l-88.32-66.133334a90.026667 90.026667 0 0 0-117.76 8.106667l-105.386667 105.386667L429.226667 341.333333a90.453333 90.453333 0 0 0-119.466667 0L128 512V170.666667a42.666667 42.666667 0 0 1 42.666667-42.666667z m682.666666 768H170.666667a42.666667 42.666667 0 0 1-42.666667-42.666667v-227.84l239.786667-219.733333a5.12 5.12 0 0 1 5.973333 0l298.666667 256a42.666667 42.666667 0 0 0 27.733333 10.24 42.666667 42.666667 0 0 0 32.426667-14.933333 42.666667 42.666667 0 0 0-3.413334-59.733334l-79.786666-68.693333 100.693333-100.693333a5.12 5.12 0 0 1 6.4 0L896 533.333333V853.333333a42.666667 42.666667 0 0 1-42.666667 42.666667z" p-id="36974" fill="#4caee0"></path></svg>