<?xml version="1.0" standalone="no"?><!DOCTYPE svg PUBLIC "-//W3C//DTD SVG 1.1//EN" "http://www.w3.org/Graphics/SVG/1.1/DTD/svg11.dtd"><svg t="1726902978770" class="icon" viewBox="0 0 1024 1024" version="1.1" xmlns="http://www.w3.org/2000/svg" p-id="27843" xmlns:xlink="http://www.w3.org/1999/xlink" width="200" height="200"><path d="M512.597333 115.818667c156.586667 0 300.8 59.861333 390.4 159.594666l1.642667 1.984 29.909333 39.210667 1.301334 1.834667c36.522667 55.594667 56.149333 117.546667 56.149333 181.248 0 214.314667-216.981333 384.725333-480.597333 384.725333-53.12 0-105.941333-7.125333-154.304-20.586667l-1.450667-0.341333-2.602667-0.490667-1.557333-0.170666c-1.749333 0-4.928 0.96-8.405333 2.837333l-95.274667 52.608a44.373333 44.373333 0 0 1-26.112 8.213333c-25.6 0-46.549333-19.776-46.549333-45.738666 0-6.613333 1.066667-12.437333 2.944-18.453334l1.856-7.146666 17.792-63.637334C93.952 719.296 32 613.738667 32 500.522667 32 286.250667 248.981333 115.84 512.597333 115.84z m-271.36 754.218666c0 1.6-0.128 3.2-0.277333 4.309334l-0.085333 0.746666 0.384-1.472-0.021334-3.584z m271.36-690.218666C281.408 179.818667 96 325.418667 96 500.544c0 91.797333 51.797333 179.2 140.714667 240.085333 15.914667 10.88 26.410667 29.482667 26.410666 49.002667 0 6.954667-1.194667 11.968-3.605333 18.602667l-10.090667 36.053333 63.018667-34.837333c12.416-6.656 25.493333-10.624 39.04-10.624 6.784 0 14.186667 1.173333 22.016 3.157333 43.498667 12.074667 90.538667 18.432 137.898667 18.432 231.189333 0 416.597333-145.6 416.597333-320.725333 0-50.496-15.573333-99.989333-45.034667-145.194667l-8.128-10.666667-504.746666 289.152-3.306667 2.218667a30.186667 30.186667 0 0 1-14.250667 3.285333 31.232 31.232 0 0 1-27.584-16.384l-2.24-4.309333-86.976-187.946667c-1.066667-2.218667-1.066667-4.330667-1.066666-6.549333 0-8.746667 6.613333-15.296 15.445333-15.296 3.285333 0 6.613333 1.066667 9.898667 3.264l102.4 72.106667c7.68 4.330667 16.512 7.616 26.410666 7.616 5.546667 0 10.965333-1.066667 16.512-3.285334l430.229334-189.824c-77.973333-73.664-195.306667-118.058667-322.965334-118.058666z" fill="#3fda49" p-id="27844"></path></svg>